<svg width="15" height="28" viewBox="0 0 15 28" fill="none" xmlns="http://www.w3.org/2000/svg">
<path d="M12.6598 27.9996C12.361 28.0006 12.0658 27.9346 11.7959 27.8066C11.5259 27.6785 11.2881 27.4916 11.0998 27.2596L1.43984 15.2596C1.14568 14.9017 0.984863 14.4528 0.984863 13.9896C0.984863 13.5263 1.14568 13.0774 1.43984 12.7196L11.4398 0.719575C11.7793 0.311142 12.2671 0.0542928 12.796 0.00553331C13.3248 -0.0432261 13.8514 0.120098 14.2598 0.459575C14.6683 0.799052 14.9251 1.28687 14.9739 1.81573C15.0226 2.34458 14.8593 2.87114 14.5198 3.27957L5.57984 13.9996L14.2198 24.7196C14.4644 25.0131 14.6198 25.3706 14.6675 25.7497C14.7153 26.1288 14.6534 26.5137 14.4893 26.8587C14.3252 27.2038 14.0657 27.4946 13.7415 27.6968C13.4173 27.899 13.0419 28.004 12.6598 27.9996Z" fill="white"/>
</svg>
