<svg width="15" height="29" viewBox="0 0 15 29" fill="none" xmlns="http://www.w3.org/2000/svg">
<path d="M2.0001 28.9999C1.5328 29.0008 1.07993 28.838 0.720102 28.5399C0.517585 28.372 0.350181 28.1658 0.227477 27.9331C0.104773 27.7004 0.0291806 27.4458 0.00502888 27.1838C-0.0191229 26.9219 0.00864119 26.6577 0.0867302 26.4065C0.164819 26.1553 0.291697 25.922 0.460101 25.7199L9.4201 14.9999L0.780103 4.25988C0.613971 4.05531 0.489907 3.81991 0.415044 3.56723C0.340181 3.31456 0.315993 3.04957 0.343871 2.78752C0.37175 2.52546 0.451143 2.2715 0.577491 2.04022C0.703839 1.80895 0.874649 1.60493 1.0801 1.43988C1.28703 1.25781 1.52937 1.12047 1.79189 1.03649C2.05441 0.952517 2.33147 0.923709 2.60565 0.951879C2.87984 0.980049 3.14524 1.06459 3.38521 1.20019C3.62517 1.3358 3.83451 1.51954 4.0001 1.73988L13.6601 13.7399C13.9543 14.0977 14.1151 14.5466 14.1151 15.0099C14.1151 15.4731 13.9543 15.922 13.6601 16.2799L3.6601 28.2799C3.45947 28.5219 3.2046 28.7132 2.91618 28.8383C2.62776 28.9634 2.31391 29.0188 2.0001 28.9999Z" fill="white"/>
</svg>
