<svg width="76" height="24" viewBox="0 0 76 24" fill="none" xmlns="http://www.w3.org/2000/svg">
    <g clip-path="url(#clip0_314_6102)">
        <path d="M20.42 10.1799L12.71 2.29995C12.617 2.20622 12.5064 2.13183 12.3846 2.08106C12.2627 2.03029 12.132 2.00415 12 2.00415C11.868 2.00415 11.7373 2.03029 11.6154 2.08106C11.4936 2.13183 11.383 2.20622 11.29 2.29995L3.57999 10.1899C3.39343 10.378 3.24609 10.6013 3.14652 10.8468C3.04695 11.0922 2.99715 11.3551 2.99999 11.6199V19.9999C2.99922 20.5119 3.19477 21.0046 3.54637 21.3766C3.89797 21.7487 4.37885 21.9718 4.88999 21.9999H19.11C19.6211 21.9718 20.102 21.7487 20.4536 21.3766C20.8052 21.0046 21.0008 20.5119 21 19.9999V11.6199C21.0008 11.0829 20.7928 10.5665 20.42 10.1799ZM9.99999 19.9999V13.9999H14V19.9999H9.99999ZM19 19.9999H16V12.9999C16 12.7347 15.8946 12.4804 15.7071 12.2928C15.5196 12.1053 15.2652 11.9999 15 11.9999H8.99999C8.73478 11.9999 8.48042 12.1053 8.29289 12.2928C8.10535 12.4804 7.99999 12.7347 7.99999 12.9999V19.9999H4.99999V11.5799L12 4.42995L19 11.6199V19.9999Z"
              fill="white"/>
    </g>
    <path d="M37.1186 17V6.81818H38.6548V11.2429H43.7308V6.81818H45.272V17H43.7308V12.5604H38.6548V17H37.1186ZM50.6065 17.1541C49.8906 17.1541 49.2659 16.9901 48.7322 16.6619C48.1986 16.3338 47.7843 15.8748 47.4893 15.2848C47.1944 14.6948 47.0469 14.0054 47.0469 13.2166C47.0469 12.4245 47.1944 11.7318 47.4893 11.1385C47.7843 10.5452 48.1986 10.0845 48.7322 9.75639C49.2659 9.42827 49.8906 9.2642 50.6065 9.2642C51.3224 9.2642 51.9472 9.42827 52.4808 9.75639C53.0144 10.0845 53.4287 10.5452 53.7237 11.1385C54.0187 11.7318 54.1662 12.4245 54.1662 13.2166C54.1662 14.0054 54.0187 14.6948 53.7237 15.2848C53.4287 15.8748 53.0144 16.3338 52.4808 16.6619C51.9472 16.9901 51.3224 17.1541 50.6065 17.1541ZM50.6115 15.9062C51.0755 15.9062 51.46 15.7836 51.7649 15.5384C52.0698 15.2931 52.2952 14.9666 52.4411 14.5589C52.5902 14.1513 52.6648 13.7022 52.6648 13.2116C52.6648 12.7244 52.5902 12.277 52.4411 11.8693C52.2952 11.4583 52.0698 11.1286 51.7649 10.88C51.46 10.6314 51.0755 10.5071 50.6115 10.5071C50.1442 10.5071 49.7564 10.6314 49.4482 10.88C49.1432 11.1286 48.9162 11.4583 48.767 11.8693C48.6212 12.277 48.5483 12.7244 48.5483 13.2116C48.5483 13.7022 48.6212 14.1513 48.767 14.5589C48.9162 14.9666 49.1432 15.2931 49.4482 15.5384C49.7564 15.7836 50.1442 15.9062 50.6115 15.9062ZM55.8255 17V9.36364H57.2523V10.6065H57.3468C57.5059 10.1856 57.766 9.85748 58.1273 9.62216C58.4886 9.38352 58.9211 9.2642 59.4249 9.2642C59.9353 9.2642 60.3629 9.38352 60.7076 9.62216C61.0556 9.8608 61.3124 10.1889 61.4782 10.6065H61.5577C61.74 10.1989 62.03 9.87405 62.4277 9.6321C62.8255 9.38684 63.2994 9.2642 63.8496 9.2642C64.5423 9.2642 65.1074 9.4813 65.5449 9.91548C65.9857 10.3497 66.2061 11.0043 66.2061 11.8793V17H64.7196V12.0185C64.7196 11.5014 64.5788 11.1269 64.2971 10.8949C64.0153 10.6629 63.6789 10.5469 63.2878 10.5469C62.8039 10.5469 62.4277 10.696 62.1593 10.9943C61.8908 11.2893 61.7566 11.6688 61.7566 12.1328V17H60.275V11.924C60.275 11.5097 60.1458 11.1766 59.8873 10.9247C59.6287 10.6728 59.2923 10.5469 58.878 10.5469C58.5963 10.5469 58.3361 10.6214 58.0975 10.7706C57.8622 10.9164 57.6716 11.1203 57.5257 11.3821C57.3832 11.6439 57.312 11.9472 57.312 12.2919V17H55.8255ZM71.4897 17.1541C70.7373 17.1541 70.0894 16.9934 69.5458 16.6719C69.0056 16.3471 68.5879 15.8913 68.293 15.3047C68.0013 14.7147 67.8555 14.0237 67.8555 13.2315C67.8555 12.4493 68.0013 11.7599 68.293 11.1634C68.5879 10.5668 68.9989 10.1011 69.5259 9.76633C70.0562 9.43158 70.676 9.2642 71.3853 9.2642C71.8162 9.2642 72.2338 9.33546 72.6381 9.47798C73.0425 9.6205 73.4054 9.84422 73.7269 10.1491C74.0484 10.4541 74.302 10.8501 74.4876 11.3374C74.6732 11.8213 74.766 12.4096 74.766 13.1023V13.6293H68.6957V12.5156H73.3093C73.3093 12.1245 73.2298 11.7782 73.0707 11.4766C72.9116 11.1716 72.6879 10.9313 72.3995 10.7557C72.1145 10.58 71.7797 10.4922 71.3952 10.4922C70.9776 10.4922 70.613 10.5949 70.3015 10.8004C69.9933 11.0026 69.7546 11.2678 69.5856 11.5959C69.4199 11.9207 69.337 12.2737 69.337 12.6548V13.5249C69.337 14.0353 69.4265 14.4695 69.6055 14.8274C69.7878 15.1854 70.0413 15.4588 70.3661 15.6477C70.6909 15.8333 71.0704 15.9261 71.5046 15.9261C71.7863 15.9261 72.0432 15.8864 72.2752 15.8068C72.5072 15.724 72.7077 15.6013 72.8768 15.4389C73.0458 15.2765 73.1751 15.076 73.2646 14.8374L74.6715 15.0909C74.5588 15.5052 74.3567 15.8681 74.065 16.1797C73.7766 16.4879 73.4137 16.7282 72.9762 16.9006C72.542 17.0696 72.0465 17.1541 71.4897 17.1541Z"
          fill="white"/>
    <defs>
        <clipPath id="clip0_314_6102">
            <rect width="24" height="24" fill="white"/>
        </clipPath>
    </defs>
</svg>
