<svg width="69.943" height="29.033" fill="none" xmlns="http://www.w3.org/2000/svg"><path d="m37.86 3.93-4.88 1.05V1.02L37.86 0v3.93ZM48 6.12c-1.9 0-3.13.89-3.81 1.51l-.25-1.2h-4.27v22.6L44.52 28l.02-5.48c.7.5 1.73 1.22 3.44 1.22 3.48 0 6.65-2.79 6.65-8.94-.02-5.62-3.23-8.68-6.63-8.68Zm-1.16 13.35c-1.15 0-1.83-.4-2.3-.91l-.02-7.19c.51-.56 1.21-.95 2.32-.95 1.76 0 2.99 1.98 2.99 4.52 0 2.59-1.21 4.53-2.99 4.53ZM69.94 15c0-4.97-2.41-8.88-7.02-8.88-4.62 0-7.42 3.91-7.42 8.84 0 5.83 3.31 8.78 8.05 8.78 2.31 0 4.06-.53 5.38-1.26V18.6c-1.32.66-2.84 1.07-4.76 1.07-1.89 0-3.56-.66-3.77-2.95h9.5c0-.11.01-.35.01-.63.02-.38.03-.83.03-1.09Zm-9.6-1.85c0-2.19 1.34-3.1 2.56-3.1 1.19 0 2.45.91 2.45 3.1h-5.01Zm-27.36-6.7h4.88v16.96h-4.88V6.45Zm-5.53 0 .31 1.43c1.14-2.09 3.42-1.66 4.04-1.43v4.46c-.6-.22-2.55-.49-3.69 1v11.5h-4.86V6.45h4.2Zm-9.41-4.21L13.3 3.25l-.02 15.53c0 2.86 2.16 4.98 5.04 4.98 1.59 0 2.75-.29 3.4-.64v-3.94c-.63.25-3.7 1.15-3.7-1.72v-6.88h3.7V6.45h-3.7l.02-4.21ZM6.56 10.33c-1.03 0-1.65.29-1.65 1.04 0 .83 1.07 1.19 2.4 1.64 2.16.73 5.01 1.7 5.02 5.28 0 3.47-2.78 5.47-6.82 5.47-1.67 0-3.49-.33-5.3-1.11v-4.61c1.63.89 3.69 1.55 5.3 1.55 1.09 0 1.87-.29 1.87-1.18 0-.92-1.16-1.33-2.56-1.84C2.69 15.8 0 14.83 0 11.6c0-3.43 2.62-5.48 6.56-5.48 1.61 0 3.21.25 4.82.89v4.56c-1.48-.8-3.34-1.24-4.82-1.24Z" fill="#6461FC" fill-rule="evenodd"/></svg>